<mxfile host="app.diagrams.net">
  <diagram name="Current State Architecture">
    <mxGraphModel dx="1422" dy="794" grid="1" gridSize="10" guides="1" tooltips="1" connect="1" arrows="1" fold="1" page="1" pageScale="1" pageWidth="827" pageHeight="1169">
      <root>
        <mxCell id="0"/>
        <mxCell id="1" parent="0"/>
        
        <!-- Users -->
        <mxCell id="2" value="Users&#xa;(50,000+)" style="rounded=1;whiteSpace=wrap;html=1;fillColor=#e1f5fe;strokeColor=#01579b;" vertex="1" parent="1">
          <mxGeometry x="340" y="40" width="120" height="60" as="geometry"/>
        </mxCell>
        
        <!-- External Partners -->
        <mxCell id="3" value="External&#xa;Partners" style="rounded=1;whiteSpace=wrap;html=1;fillColor=#fff3e0;strokeColor=#e65100;" vertex="1" parent="1">
          <mxGeometry x="520" y="120" width="100" height="50" as="geometry"/>
        </mxCell>
        
        <!-- IOP -->
        <mxCell id="4" value="Innovative Ohio&#xa;Platform (IOP)" style="rounded=1;whiteSpace=wrap;html=1;fillColor=#f3e5f5;strokeColor=#4a148c;" vertex="1" parent="1">
          <mxGeometry x="320" y="140" width="160" height="60" as="geometry"/>
        </mxCell>
        
        <!-- Computer Site Processor -->
        <mxCell id="5" value="Computer Site&#xa;Processor" style="rounded=1;whiteSpace=wrap;html=1;fillColor=#fff3e0;strokeColor=#e65100;" vertex="1" parent="1">
          <mxGeometry x="320" y="240" width="160" height="60" as="geometry"/>
        </mxCell>
        
        <!-- WAP -->
        <mxCell id="6" value="Web Application&#xa;Proxy (WAP)" style="rounded=1;whiteSpace=wrap;html=1;fillColor=#f1f8e9;strokeColor=#33691e;" vertex="1" parent="1">
          <mxGeometry x="320" y="340" width="160" height="60" as="geometry"/>
        </mxCell>
        
        <!-- ADFS Server -->
        <mxCell id="7" value="ADFS&#xa;Server" style="rounded=1;whiteSpace=wrap;html=1;fillColor=#fce4ec;strokeColor=#880e4f;" vertex="1" parent="1">
          <mxGeometry x="160" y="440" width="100" height="60" as="geometry"/>
        </mxCell>
        
        <!-- DODD Active Directory -->
        <mxCell id="8" value="DODD Active&#xa;Directory" style="rounded=1;whiteSpace=wrap;html=1;fillColor=#e8f5e8;strokeColor=#1b5e20;" vertex="1" parent="1">
          <mxGeometry x="320" y="440" width="120" height="60" as="geometry"/>
        </mxCell>
        
        <!-- Legacy Applications -->
        <mxCell id="9" value="Legacy&#xa;Applications&#xa;(Direct Access)" style="rounded=1;whiteSpace=wrap;html=1;fillColor=#fff8e1;strokeColor=#f57f17;" vertex="1" parent="1">
          <mxGeometry x="500" y="440" width="120" height="80" as="geometry"/>
        </mxCell>
        
        <!-- Claims-Aware Apps -->
        <mxCell id="10" value="Claims-Aware Apps&#xa;(20 Apps)" style="rounded=1;whiteSpace=wrap;html=1;fillColor=#e0f2f1;strokeColor=#00695c;" vertex="1" parent="1">
          <mxGeometry x="80" y="560" width="140" height="60" as="geometry"/>
        </mxCell>
        
        <!-- User Groups -->
        <mxCell id="11" value="User Groups&#xa;(847)" style="rounded=1;whiteSpace=wrap;html=1;fillColor=#f9fbe7;strokeColor=#827717;" vertex="1" parent="1">
          <mxGeometry x="320" y="560" width="120" height="60" as="geometry"/>
        </mxCell>
        
        <!-- OMRDD Helper Library -->
        <mxCell id="12" value="OMRDD&#xa;Helper Library" style="rounded=1;whiteSpace=wrap;html=1;fillColor=#ffebee;strokeColor=#c62828;" vertex="1" parent="1">
          <mxGeometry x="500" y="560" width="120" height="60" as="geometry"/>
        </mxCell>
        
        <!-- SCS Database -->
        <mxCell id="13" value="SCS Database&#xa;(2.3M Users)" style="rounded=1;whiteSpace=wrap;html=1;fillColor=#fafafa;strokeColor=#616161;" vertex="1" parent="1">
          <mxGeometry x="500" y="660" width="120" height="60" as="geometry"/>
        </mxCell>
        
        <!-- Connections -->
        <mxCell id="14" value="" style="endArrow=classic;html=1;exitX=0.5;exitY=1;exitDx=0;exitDy=0;entryX=0.5;entryY=0;entryDx=0;entryDy=0;" edge="1" parent="1" source="2" target="4">
          <mxGeometry width="50" height="50" relative="1" as="geometry">
            <mxPoint x="400" y="100" as="sourcePoint"/>
            <mxPoint x="450" y="50" as="targetPoint"/>
          </mxGeometry>
        </mxCell>
        
        <mxCell id="15" value="" style="endArrow=classic;html=1;exitX=0;exitY=0.5;exitDx=0;exitDy=0;entryX=1;entryY=0.5;entryDx=0;entryDy=0;" edge="1" parent="1" source="3" target="4">
          <mxGeometry width="50" height="50" relative="1" as="geometry">
            <mxPoint x="400" y="200" as="sourcePoint"/>
            <mxPoint x="450" y="150" as="targetPoint"/>
          </mxGeometry>
        </mxCell>
        
        <mxCell id="16" value="" style="endArrow=classic;html=1;exitX=0.5;exitY=1;exitDx=0;exitDy=0;entryX=0.5;entryY=0;entryDx=0;entryDy=0;" edge="1" parent="1" source="4" target="5">
          <mxGeometry width="50" height="50" relative="1" as="geometry">
            <mxPoint x="400" y="200" as="sourcePoint"/>
            <mxPoint x="450" y="150" as="targetPoint"/>
          </mxGeometry>
        </mxCell>
        
        <mxCell id="17" value="" style="endArrow=classic;html=1;exitX=0.5;exitY=1;exitDx=0;exitDy=0;entryX=0.5;entryY=0;entryDx=0;entryDy=0;" edge="1" parent="1" source="5" target="6">
          <mxGeometry width="50" height="50" relative="1" as="geometry">
            <mxPoint x="400" y="300" as="sourcePoint"/>
            <mxPoint x="450" y="250" as="targetPoint"/>
          </mxGeometry>
        </mxCell>
        
        <mxCell id="18" value="" style="endArrow=classic;html=1;exitX=0.2;exitY=1;exitDx=0;exitDy=0;entryX=0.5;entryY=0;entryDx=0;entryDy=0;" edge="1" parent="1" source="6" target="7">
          <mxGeometry width="50" height="50" relative="1" as="geometry">
            <mxPoint x="350" y="400" as="sourcePoint"/>
            <mxPoint x="400" y="350" as="targetPoint"/>
          </mxGeometry>
        </mxCell>
        
        <mxCell id="19" value="" style="endArrow=classic;html=1;exitX=0.5;exitY=1;exitDx=0;exitDy=0;entryX=0.5;entryY=0;entryDx=0;entryDy=0;" edge="1" parent="1" source="6" target="8">
          <mxGeometry width="50" height="50" relative="1" as="geometry">
            <mxPoint x="400" y="400" as="sourcePoint"/>
            <mxPoint x="450" y="350" as="targetPoint"/>
          </mxGeometry>
        </mxCell>
        
        <mxCell id="20" value="" style="endArrow=classic;html=1;exitX=0.8;exitY=1;exitDx=0;exitDy=0;entryX=0.5;entryY=0;entryDx=0;entryDy=0;" edge="1" parent="1" source="6" target="9">
          <mxGeometry width="50" height="50" relative="1" as="geometry">
            <mxPoint x="450" y="400" as="sourcePoint"/>
            <mxPoint x="500" y="350" as="targetPoint"/>
          </mxGeometry>
        </mxCell>
        
        <mxCell id="21" value="" style="endArrow=classic;html=1;exitX=0.5;exitY=1;exitDx=0;exitDy=0;entryX=0.5;entryY=0;entryDx=0;entryDy=0;" edge="1" parent="1" source="7" target="10">
          <mxGeometry width="50" height="50" relative="1" as="geometry">
            <mxPoint x="200" y="500" as="sourcePoint"/>
            <mxPoint x="250" y="450" as="targetPoint"/>
          </mxGeometry>
        </mxCell>
        
        <mxCell id="22" value="" style="endArrow=classic;html=1;exitX=0.5;exitY=1;exitDx=0;exitDy=0;entryX=0.5;entryY=0;entryDx=0;entryDy=0;" edge="1" parent="1" source="8" target="11">
          <mxGeometry width="50" height="50" relative="1" as="geometry">
            <mxPoint x="380" y="500" as="sourcePoint"/>
            <mxPoint x="430" y="450" as="targetPoint"/>
          </mxGeometry>
        </mxCell>
        
        <mxCell id="23" value="" style="endArrow=classic;html=1;exitX=0.5;exitY=1;exitDx=0;exitDy=0;entryX=0.5;entryY=0;entryDx=0;entryDy=0;" edge="1" parent="1" source="9" target="12">
          <mxGeometry width="50" height="50" relative="1" as="geometry">
            <mxPoint x="560" y="520" as="sourcePoint"/>
            <mxPoint x="610" y="470" as="targetPoint"/>
          </mxGeometry>
        </mxCell>
        
        <mxCell id="24" value="" style="endArrow=classic;html=1;exitX=0.5;exitY=1;exitDx=0;exitDy=0;entryX=0.5;entryY=0;entryDx=0;entryDy=0;" edge="1" parent="1" source="12" target="13">
          <mxGeometry width="50" height="50" relative="1" as="geometry">
            <mxPoint x="560" y="620" as="sourcePoint"/>
            <mxPoint x="610" y="570" as="targetPoint"/>
          </mxGeometry>
        </mxCell>
      </root>
    </mxGraphModel>
  </diagram>
</mxfile>